<svg xmlns="http://www.w3.org/2000/svg" xmlns:xlink="http://www.w3.org/1999/xlink" width="1754" zoomAndPan="magnify" viewBox="0 0 1315.5 288.749989" height="385" preserveAspectRatio="xMidYMid meet" version="1.0"><defs><g/></defs><g fill="#ffffff" fill-opacity="1"><g transform="translate(12.154166, 252.783985)"><g><path d="M 10.671875 -241.265625 L 84.828125 -241.265625 C 96.617188 -241.265625 105.742188 -238.597656 112.203125 -233.265625 C 118.671875 -227.929688 123.023438 -220.441406 125.265625 -210.796875 C 127.515625 -201.148438 128.640625 -188.835938 128.640625 -173.859375 C 128.640625 -160.191406 126.859375 -149.519531 123.296875 -141.84375 C 119.742188 -134.164062 113.566406 -128.828125 104.765625 -125.828125 C 112.066406 -124.328125 117.351562 -120.675781 120.625 -114.875 C 123.90625 -109.070312 125.546875 -101.207031 125.546875 -91.28125 L 124.984375 0 L 77.796875 0 L 77.796875 -94.375 C 77.796875 -101.113281 76.484375 -105.421875 73.859375 -107.296875 C 71.242188 -109.171875 66.472656 -110.109375 59.546875 -110.109375 L 59.546875 0 L 10.671875 0 Z M 71.34375 -151.953125 C 78.082031 -151.953125 81.453125 -159.253906 81.453125 -173.859375 C 81.453125 -180.222656 81.171875 -185 80.609375 -188.1875 C 80.046875 -191.375 79.015625 -193.570312 77.515625 -194.78125 C 76.023438 -196 73.875 -196.609375 71.0625 -196.609375 L 59.828125 -196.609375 L 59.828125 -151.953125 Z M 71.34375 -151.953125 "/></g></g></g><g fill="#ffffff" fill-opacity="1"><g transform="translate(146.130012, 252.783985)"><g><path d="M 4.21875 0 L 27.53125 -241.265625 L 109.265625 -241.265625 L 132.296875 0 L 86.515625 0 L 83.140625 -39.046875 L 53.921875 -39.046875 L 51.125 0 Z M 57.578125 -77.515625 L 79.484375 -77.515625 L 68.8125 -200.265625 L 66.5625 -200.265625 Z M 57.578125 -77.515625 "/></g></g></g><g fill="#ffffff" fill-opacity="1"><g transform="translate(282.352665, 252.783985)"><g><path d="M 10.671875 -241.265625 L 77.234375 -241.265625 C 94.460938 -241.265625 107.382812 -236.488281 116 -226.9375 C 124.613281 -217.394531 129.015625 -203.257812 129.203125 -184.53125 L 129.765625 -71.625 C 129.953125 -47.84375 125.832031 -29.957031 117.40625 -17.96875 C 108.976562 -5.988281 95.03125 0 75.5625 0 L 10.671875 0 Z M 67.6875 -42.6875 C 76.488281 -42.6875 80.890625 -46.992188 80.890625 -55.609375 L 80.890625 -180.046875 C 80.890625 -185.472656 80.46875 -189.539062 79.625 -192.25 C 78.78125 -194.96875 77.234375 -196.796875 74.984375 -197.734375 C 72.742188 -198.671875 69.28125 -199.140625 64.59375 -199.140625 L 59.265625 -199.140625 L 59.265625 -42.6875 Z M 67.6875 -42.6875 "/></g></g></g><g fill="#ffffff" fill-opacity="1"><g transform="translate(420.82239, 252.783985)"><g><path d="M 8.421875 0 L 8.421875 -241.265625 L 55.046875 -241.265625 L 55.046875 0 Z M 8.421875 0 "/></g></g></g><g fill="#ffffff" fill-opacity="1"><g transform="translate(484.580196, 252.783985)"><g><path d="M 68.25 2.25 C 48.78125 2.25 33.988281 -3.691406 23.875 -15.578125 C 13.757812 -27.472656 8.703125 -44.1875 8.703125 -65.71875 L 8.703125 -180.609375 C 8.703125 -201.390625 13.757812 -217.066406 23.875 -227.640625 C 33.988281 -238.222656 48.78125 -243.515625 68.25 -243.515625 C 87.726562 -243.515625 102.519531 -238.222656 112.625 -227.640625 C 122.738281 -217.066406 127.796875 -201.390625 127.796875 -180.609375 L 127.796875 -65.71875 C 127.796875 -44 122.738281 -27.238281 112.625 -15.4375 C 102.519531 -3.644531 87.726562 2.25 68.25 2.25 Z M 68.25 -42.125 C 72.5625 -42.125 75.460938 -43.992188 76.953125 -47.734375 C 78.453125 -51.484375 79.203125 -56.734375 79.203125 -63.484375 L 79.203125 -181.4375 C 79.203125 -186.6875 78.5 -190.945312 77.09375 -194.21875 C 75.695312 -197.5 72.84375 -199.140625 68.53125 -199.140625 C 60.476562 -199.140625 56.453125 -193.054688 56.453125 -180.890625 L 56.453125 -63.203125 C 56.453125 -56.265625 57.296875 -51.015625 58.984375 -47.453125 C 60.671875 -43.898438 63.757812 -42.125 68.25 -42.125 Z M 68.25 -42.125 "/></g></g></g><g fill="#ffffff" fill-opacity="1"><g transform="translate(621.083832, 252.783985)"><g><path d="M 31.453125 0 L 31.453125 -194.921875 L 2.8125 -194.921875 L 2.8125 -241.265625 L 108.421875 -241.265625 L 108.421875 -194.921875 L 79.765625 -194.921875 L 79.765625 0 Z M 31.453125 0 "/></g></g></g><g fill="#ffffff" fill-opacity="1"><g transform="translate(732.309028, 252.783985)"><g><path d="M 10.671875 0 L 10.671875 -241.265625 L 107.296875 -241.265625 L 107.296875 -194.640625 L 59.828125 -194.640625 L 59.828125 -147.734375 L 105.328125 -147.734375 L 105.328125 -102.234375 L 59.828125 -102.234375 L 59.828125 -46.90625 L 110.390625 -46.90625 L 110.390625 0 Z M 10.671875 0 "/></g></g></g><g fill="#ffffff" fill-opacity="1"><g transform="translate(848.028104, 252.783985)"><g><path d="M 10.671875 -241.265625 L 74.4375 -241.265625 C 93.71875 -241.265625 107.476562 -235.039062 115.71875 -222.59375 C 123.957031 -210.144531 128.078125 -191.9375 128.078125 -167.96875 C 128.078125 -144 124.425781 -125.925781 117.125 -113.75 C 109.820312 -101.582031 96.710938 -95.5 77.796875 -95.5 L 58.140625 -95.5 L 58.140625 0 L 10.671875 0 Z M 60.953125 -139.03125 C 66.753906 -139.03125 71.007812 -140.109375 73.71875 -142.265625 C 76.4375 -144.421875 78.21875 -147.507812 79.0625 -151.53125 C 79.90625 -155.5625 80.328125 -161.320312 80.328125 -168.8125 C 80.328125 -178.914062 79.203125 -186.210938 76.953125 -190.703125 C 74.710938 -195.203125 70.222656 -197.453125 63.484375 -197.453125 L 58.140625 -197.453125 L 58.140625 -139.03125 Z M 60.953125 -139.03125 "/></g></g></g><g fill="#ffffff" fill-opacity="1"><g transform="translate(980.599562, 252.783985)"><g><path d="M 10.671875 0 L 10.671875 -241.265625 L 107.296875 -241.265625 L 107.296875 -194.359375 L 59.265625 -194.359375 L 59.265625 -155.890625 L 104.765625 -155.890625 L 104.765625 -109.546875 L 59.265625 -109.546875 L 59.265625 0 Z M 10.671875 0 "/></g></g></g><g fill="#ffffff" fill-opacity="1"><g transform="translate(1092.667443, 252.783985)"><g><path d="M 10.671875 0 L 10.671875 -241.265625 L 84.265625 -241.265625 L 104.484375 -94.09375 L 124.703125 -241.265625 L 198.859375 -241.265625 L 198.859375 0 L 154.765625 0 L 154.765625 -173.859375 L 126.953125 0 L 83.703125 0 L 54.203125 -173.859375 L 54.203125 0 Z M 10.671875 0 "/></g></g></g></svg>