<svg xmlns="http://www.w3.org/2000/svg" xmlns:xlink="http://www.w3.org/1999/xlink" width="169" zoomAndPan="magnify" viewBox="0 0 126.75 33.749998" height="45" preserveAspectRatio="xMidYMid meet" version="1.0"><defs><g/><clipPath id="8050691bd5"><path d="M 0.34375 0 L 24.164062 0 L 24.164062 23.824219 L 0.34375 23.824219 Z M 0.34375 0 " clip-rule="nonzero"/></clipPath><clipPath id="478c04e886"><path d="M 12.277344 0 C 5.683594 0 0.34375 5.34375 0.34375 11.933594 C 0.34375 18.527344 5.683594 23.871094 12.277344 23.871094 C 18.867188 23.871094 24.210938 18.527344 24.210938 11.933594 C 24.210938 5.34375 18.867188 0 12.277344 0 Z M 12.277344 0 " clip-rule="nonzero"/></clipPath><clipPath id="035680b88f"><path d="M 14.074219 17.710938 L 29.710938 17.710938 L 29.710938 33.347656 L 14.074219 33.347656 Z M 14.074219 17.710938 " clip-rule="nonzero"/></clipPath><clipPath id="49332d1c6b"><path d="M 21.96875 17.710938 C 17.609375 17.710938 14.074219 21.246094 14.074219 25.605469 C 14.074219 29.964844 17.609375 33.5 21.96875 33.5 C 26.328125 33.5 29.859375 29.964844 29.859375 25.605469 C 29.859375 21.246094 26.328125 17.710938 21.96875 17.710938 Z M 21.96875 17.710938 " clip-rule="nonzero"/></clipPath></defs><g clip-path="url(#8050691bd5)"><g clip-path="url(#478c04e886)"><path stroke-linecap="butt" transform="matrix(0.744485, 0, 0, 0.744485, 0.341916, -0.000000992647)" fill="none" stroke-linejoin="miter" d="M 16.031787 0.00000133333 C 7.174996 0.00000133333 0.00246412 7.17778 0.00246412 16.029324 C 0.00246412 24.886115 7.174996 32.063893 16.031787 32.063893 C 24.883331 32.063893 32.061109 24.886115 32.061109 16.029324 C 32.061109 7.17778 24.883331 0.00000133333 16.031787 0.00000133333 Z M 16.031787 0.00000133333 " stroke="#ffffff" stroke-width="8" stroke-opacity="1" stroke-miterlimit="4"/></g></g><g clip-path="url(#035680b88f)"><g clip-path="url(#49332d1c6b)"><path stroke-linecap="butt" transform="matrix(0.744485, 0, 0, 0.744485, 14.075712, 17.712885)" fill="none" stroke-linejoin="miter" d="M 10.602008 -0.00261649 C 4.746451 -0.00261649 -0.00200591 4.745841 -0.00200591 10.601397 C -0.00200591 16.456953 4.746451 21.20541 10.602008 21.20541 C 16.457564 21.20541 21.200774 16.456953 21.200774 10.601397 C 21.200774 4.745841 16.457564 -0.00261649 10.602008 -0.00261649 Z M 10.602008 -0.00261649 " stroke="#ffffff" stroke-width="8" stroke-opacity="1" stroke-miterlimit="4"/></g></g><g fill="#ffffff" fill-opacity="1"><g transform="translate(27.71234, 24.039168)"><g><path d="M 13.734375 -14.828125 C 13.734375 -14.347656 13.722656 -13.921875 13.703125 -13.546875 C 13.691406 -13.179688 13.640625 -12.867188 13.546875 -12.609375 C 13.453125 -12.359375 13.300781 -12.164062 13.09375 -12.03125 C 12.882812 -11.90625 12.585938 -11.84375 12.203125 -11.84375 L 8.96875 -11.84375 L 8.96875 0 L 7.390625 0 C 6.890625 0 6.503906 -0.078125 6.234375 -0.234375 C 5.972656 -0.398438 5.789062 -0.648438 5.6875 -0.984375 C 5.582031 -1.316406 5.53125 -1.738281 5.53125 -2.25 L 5.53125 -11.84375 L 0.71875 -11.84375 C 0.71875 -12.3125 0.726562 -12.726562 0.75 -13.09375 C 0.769531 -13.46875 0.820312 -13.78125 0.90625 -14.03125 C 1 -14.289062 1.148438 -14.488281 1.359375 -14.625 C 1.578125 -14.757812 1.875 -14.828125 2.25 -14.828125 Z M 13.734375 -14.828125 "/></g></g></g><g fill="#ffffff" fill-opacity="1"><g transform="translate(40.859998, 24.039168)"><g><path d="M 3.203125 0 C 2.703125 0 2.316406 -0.078125 2.046875 -0.234375 C 1.785156 -0.398438 1.601562 -0.648438 1.5 -0.984375 C 1.394531 -1.316406 1.34375 -1.738281 1.34375 -2.25 L 1.34375 -14.828125 L 12.34375 -14.828125 C 12.34375 -14.347656 12.332031 -13.921875 12.3125 -13.546875 C 12.300781 -13.179688 12.25 -12.867188 12.15625 -12.609375 C 12.0625 -12.359375 11.910156 -12.164062 11.703125 -12.03125 C 11.492188 -11.90625 11.195312 -11.84375 10.8125 -11.84375 L 4.78125 -11.84375 L 4.78125 -9.0625 L 11.75 -9.0625 C 11.75 -8.582031 11.738281 -8.15625 11.71875 -7.78125 C 11.707031 -7.414062 11.65625 -7.101562 11.5625 -6.84375 C 11.46875 -6.59375 11.316406 -6.398438 11.109375 -6.265625 C 10.898438 -6.128906 10.601562 -6.0625 10.21875 -6.0625 L 4.78125 -6.0625 L 4.78125 -3.4375 C 4.78125 -3.300781 4.796875 -3.191406 4.828125 -3.109375 C 4.859375 -3.023438 4.96875 -2.984375 5.15625 -2.984375 L 12.34375 -2.984375 C 12.34375 -2.515625 12.332031 -2.09375 12.3125 -1.71875 C 12.300781 -1.351562 12.25 -1.039062 12.15625 -0.78125 C 12.0625 -0.53125 11.910156 -0.335938 11.703125 -0.203125 C 11.492188 -0.0664062 11.195312 0 10.8125 0 Z M 3.203125 0 "/></g></g></g><g fill="#ffffff" fill-opacity="1"><g transform="translate(53.025731, 24.039168)"><g><path d="M 4.78125 -5.328125 L 4.78125 0 L 3.203125 0 C 2.703125 0 2.316406 -0.078125 2.046875 -0.234375 C 1.785156 -0.398438 1.601562 -0.648438 1.5 -0.984375 C 1.394531 -1.316406 1.34375 -1.738281 1.34375 -2.25 L 1.34375 -14.828125 L 7.375 -14.828125 C 9.300781 -14.828125 10.75 -14.429688 11.71875 -13.640625 C 12.695312 -12.847656 13.1875 -11.660156 13.1875 -10.078125 C 13.1875 -8.503906 12.695312 -7.316406 11.71875 -6.515625 C 10.75 -5.722656 9.300781 -5.328125 7.375 -5.328125 Z M 4.78125 -11.84375 L 4.78125 -8.328125 L 7.375 -8.328125 C 8.21875 -8.328125 8.820312 -8.460938 9.1875 -8.734375 C 9.5625 -9.003906 9.75 -9.453125 9.75 -10.078125 C 9.75 -10.710938 9.5625 -11.164062 9.1875 -11.4375 C 8.820312 -11.707031 8.21875 -11.84375 7.375 -11.84375 Z M 4.78125 -11.84375 "/></g></g></g><g fill="#ffffff" fill-opacity="1"><g transform="translate(66.03902, 24.039168)"><g/></g></g><g fill="#ffffff" fill-opacity="1"><g transform="translate(70.649078, 24.039168)"><g><path d="M 4.78125 0 L 3.203125 0 C 2.703125 0 2.316406 -0.078125 2.046875 -0.234375 C 1.785156 -0.398438 1.601562 -0.648438 1.5 -0.984375 C 1.394531 -1.316406 1.34375 -1.738281 1.34375 -2.25 L 1.34375 -14.828125 L 12.34375 -14.828125 C 12.34375 -14.347656 12.332031 -13.921875 12.3125 -13.546875 C 12.300781 -13.179688 12.25 -12.867188 12.15625 -12.609375 C 12.0625 -12.359375 11.910156 -12.164062 11.703125 -12.03125 C 11.492188 -11.90625 11.195312 -11.84375 10.8125 -11.84375 L 4.78125 -11.84375 L 4.78125 -9.0625 L 11.75 -9.0625 C 11.75 -8.582031 11.738281 -8.15625 11.71875 -7.78125 C 11.707031 -7.414062 11.65625 -7.101562 11.5625 -6.84375 C 11.46875 -6.59375 11.316406 -6.398438 11.109375 -6.265625 C 10.898438 -6.128906 10.601562 -6.0625 10.21875 -6.0625 L 4.78125 -6.0625 Z M 4.78125 0 "/></g></g></g><g fill="#ffffff" fill-opacity="1"><g transform="translate(82.814809, 24.039168)"><g><path d="M 13.328125 -2.25 L 13.328125 -9.703125 L 11.40625 -2.15625 C 11.226562 -1.457031 10.957031 -0.921875 10.59375 -0.546875 C 10.226562 -0.179688 9.71875 0 9.0625 0 C 8.394531 0 7.878906 -0.179688 7.515625 -0.546875 C 7.160156 -0.921875 6.890625 -1.457031 6.703125 -2.15625 L 4.78125 -9.703125 L 4.78125 0 L 3.203125 0 C 2.703125 0 2.316406 -0.078125 2.046875 -0.234375 C 1.785156 -0.398438 1.601562 -0.648438 1.5 -0.984375 C 1.394531 -1.316406 1.34375 -1.738281 1.34375 -2.25 L 1.34375 -12.28125 C 1.34375 -12.789062 1.453125 -13.234375 1.671875 -13.609375 C 1.898438 -13.992188 2.210938 -14.289062 2.609375 -14.5 C 3.003906 -14.71875 3.453125 -14.828125 3.953125 -14.828125 C 4.753906 -14.828125 5.398438 -14.625 5.890625 -14.21875 C 6.378906 -13.820312 6.710938 -13.273438 6.890625 -12.578125 L 9.0625 -4.09375 L 11.21875 -12.578125 C 11.394531 -13.273438 11.726562 -13.820312 12.21875 -14.21875 C 12.71875 -14.625 13.363281 -14.828125 14.15625 -14.828125 C 14.664062 -14.828125 15.113281 -14.71875 15.5 -14.5 C 15.894531 -14.289062 16.203125 -13.992188 16.421875 -13.609375 C 16.648438 -13.234375 16.765625 -12.789062 16.765625 -12.28125 L 16.765625 0 L 15.1875 0 C 14.6875 0 14.300781 -0.078125 14.03125 -0.234375 C 13.769531 -0.398438 13.585938 -0.648438 13.484375 -0.984375 C 13.378906 -1.316406 13.328125 -1.738281 13.328125 -2.25 Z M 13.328125 -2.25 "/></g></g></g></svg>